# xmcd CD database file
#
# Track frame offsets:
#	150
#	15234
#	31833
#	52174
#	68788
#	85820
#	99582
#	117415
#	137241
#	150780
#	171356
#	187410
#	207911
#	224728
#	242095
#	256872
#	287154
#	299993
#	316015
#
# Disc length: 4418 seconds
#
# Revision: 0
# Processed by: cddbd v1.5PL3 Copyright (c) Steve Scherf et al.
# Submitted via: CDex 1.50
#
DISCID=21114013
DTITLE=Nat King Cole - Nat King Cole/ Gold Label
DYEAR=1900
DGENRE=Jazz
TTITLE0=Nature Boy
TTITLE1=Mona Lisa
TTITLE2=Fascination
TTITLE3=Calypso Blue
TTITLE4=Embraceable You
TTITLE5=Pretend
TTITLE6=Too Young
TTITLE7=(You Call It Madness) I Call It Love
TTITLE8=That's My Girl
TTITLE9=Goldmine In The Sky
TTITLE10=Autumn Leaves
TTITLE11=Walking My Baby Back Home
TTITLE12=Sweet Lorraine
TTITLE13=St Louis Blues
TTITLE14=(Get Your Kicks} On Route 66
TTITLE15=Always You
TTITLE16=Straighten Up And Fly Right
TTITLE17=Je Vous Aime Beaucoup - I Love You
TTITLE18=Shine On Harvest Moon
EXTD=
EXTT0=
EXTT1=
EXTT2=
EXTT3=
EXTT4=
EXTT5=
EXTT6=
EXTT7=
EXTT8=
EXTT9=
EXTT10=
EXTT11=
EXTT12=
EXTT13=
EXTT14=
EXTT15=
EXTT16=
EXTT17=
EXTT18=
PLAYORDER=
